# xmcd
#
# Track frame offsets:
#	150
#	16741
#	27888
#	42389
#	55939
#	72700
#	87287
#	103941
#	129056
#	146493
#	159347
#	175371
#	180823
#	219189
#	237584
#	263865
#
# Disc length: 3787 seconds
#
# Revision: 1
# Processed by: cddbd v1.5.2PL0 Copyright (c) Steve Scherf et al.
# Submitted via: audiograbber 1.83.01
#
DISCID=d50ec910
DTITLE=Skafish - What's This? 1976-1979
DYEAR=1979
DGENRE=Rock
TTITLE0=Executive Exhibitionist
TTITLE1=Knuckle Sandwich
TTITLE2=They Give You Bad Feelings
TTITLE3=Maybe One Time (1976)
TTITLE4=You Invited Me
TTITLE5=Tattle Tale
TTITLE6=Sign of the Cross (studio)
TTITLE7=No Liberation Here (1977)
TTITLE8=Work Song (single version)
TTITLE9=There's a World
TTITLE10=Disgracing the Family Name (single version)
TTITLE11=Commentary: Introduction
TTITLE12=Commentary: The recordings
TTITLE13=Commentary: The Chicago scene
TTITLE14=Commentary: The Skafish Band
TTITLE15=Commentary: Conclusion
EXTD=
EXTT0=
EXTT1=
EXTT2=
EXTT3=
EXTT4=
EXTT5=
EXTT6=
EXTT7=
EXTT8=
EXTT9=
EXTT10=
EXTT11=
EXTT12=
EXTT13=
EXTT14=
EXTT15=
PLAYORDER=
